<?xml version="1.0"?>
<svg xmlns:rdf="http://www.w3.org/1999/02/22-rdf-syntax-ns#" xmlns="http://www.w3.org/2000/svg" xmlns:osb="http://www.openswatchbook.org/uri/2009/osb" xmlns:cc="http://creativecommons.org/ns#" xmlns:dc="http://purl.org/dc/elements/1.1/" xmlns:svg="http://www.w3.org/2000/svg" id="svg2" viewBox="0 0 500 500" version="1.1">
  <g id="layer2">
    <rect id="rect5318" y="-20.229" width="604.07" height="530.33" x="-42.426"/>
    <path id="path5166" d="m228.59 314.53c-40.573-0.7621-50.808-1.5742-42.59-3.3793 6.1864-1.3588 12.901-14.542 18.275-35.88 1.7491-6.9448 4.5897-15.273 6.3125-18.507 3.4833-6.5391 9.7985-12.637 16.394-15.83 4.2856-2.0746 4.8412-2.0899 36.908-1.0179 23.972 0.80139 33.27 1.4571 35.261 2.4866 4.2386 2.1919 11.135 10.278 13.664 16.021 1.2668 2.8769 3.5359 11.14 5.0425 18.363 4.4398 21.284 9.1637 33.31 14.009 35.663 1.4925 0.72479 2.7137 1.7476 2.7137 2.2728 0 1.1056-40.85 1.0316-105.99-0.19198z" fill="#ffc500"/>
    <path id="path5168" d="m265.47 100.63c-4.9881-0.73576-4.8756-0.62152-4.8327-4.9072 0.0341-3.3991 0.44165-5.383 1.9822-9.6487 1.1469-3.1756 3.9767-16.184 7.4637-34.31 0.81103-4.2158 1.5137-7.7042 1.5616-7.752 0.0478-0.04782 0.40194 3.0037 0.78693 6.7812 0.97306 9.5475 2.8447 25.243 3.6046 30.228 0.34936 2.2918 0.96872 5.3458 1.3764 6.7868 0.92863 3.2826 1.3496 6.6616 1.1265 9.0421-0.16949 1.8087-0.19062 1.8524-1.3761 2.8449-0.66216 0.55439-1.5124 1.1253-1.8895 1.2686-1.1012 0.41867-5.7825 0.25923-9.8037-0.3339z" fill="#ffc500"/>
    <path id="path5170" d="m275.13 109.85c0-0.52744-0.88049-0.61201-10.042-0.9645l-4.3598-0.16775-1.0176-1.104c-0.62015-0.67278-0.94439-1.2248-0.83015-1.4133 0.1031-0.17016 0.72367-1.1334 1.379-2.1406 0.65537-1.0072 1.2294-1.9338 1.2756-2.059 0.0468-0.12667 1.4854-0.005 3.2408 0.27365 3.2755 0.52031 8.9309 0.72835 10.779 0.39651 0.94659-0.16997 1.0742-0.13278 1.2301 0.35844 0.0957 0.30146 0.69747 1.3964 1.3373 2.4332l1.1634 1.8851-1.0465 0.91317c-0.57557 0.50224-1.5106 1.1723-2.0778 1.4889-0.97453 0.54404-1.0313 0.54956-1.0313 0.1002z" fill="#ffc500"/>
    <path id="path5172" d="m276.85 116.47c-0.12314-0.47087-0.62584-0.53513-8.495-1.0859-4.6003-0.32197-8.5813-0.52861-8.8468-0.45919-0.3785 0.099-0.60331-0.13146-1.042-1.0681-0.30765-0.65685-0.5183-1.4099-0.4681-1.6735 0.051-0.26767 0.64762-0.77418 1.3515-1.1473l1.2603-0.66809 7.1973 0.34637c4.1768 0.201 7.2298 0.25151 7.2747 0.12036 0.0975-0.28486 2.6804 0.86268 3.7801 1.6794l0.82701 0.61422-0.52409 0.93248c-0.28825 0.51287-0.89758 1.3774-1.3541 1.9211-0.735 0.87546-0.84497 0.93132-0.96087 0.48812z" fill="#ffc500"/>
    <path id="path5174" d="m266.08 137.07c-6.021-0.24988-10.993-0.49989-11.049-0.55556-0.0557-0.0557-0.23245-0.75466-0.39284-1.5533l-0.29162-1.4521 1.2386-1.1996 1.2386-1.1996 9.7227 0.7133c5.3475 0.39232 10.12 0.68592 10.607 0.65245 0.79979-0.0551 0.88388-0.13278 0.88388-0.81697v-0.75612l-11.112-0.79504c-6.1114-0.43727-11.135-0.80728-11.164-0.82225-0.0286-0.015 0.11452-0.49897 0.31796-1.0756 0.20344-0.57661 0.43794-1.6846 0.5211-2.4622 0.14403-1.3468 0.79252-3.3096 1.0924-3.3064 0.0774 0.00085 4.2319 0.34108 9.2322 0.75607 11.459 0.95102 10.733 0.95069 10.733 0.005 0-0.57678-0.13286-0.78086-0.56821-0.87279-0.31251-0.066-4.432-0.41105-9.1545-0.76679s-8.8964-0.69834-9.2755-0.76133c-0.58792-0.0977-0.71778-0.007-0.88389 0.61611l-0.19471 0.73065-0.666-0.57514c-1.4842-1.2817-1.4398-1.4568 0.85395-3.3672l2.0849-1.7364 8.3045 0.60937c5.5454 0.40692 8.3572 0.52403 8.4632 0.35249 0.2008-0.3249 4.1656 3.1718 4.2708 3.7666 0.0505 0.28594-0.32469 0.71685-1.072 1.231l-1.1498 0.79106 0.40309 0.93579c0.22171 0.51468 0.3994 1.5608 0.39487 2.3247-0.005 0.76393 0.12791 1.9004 0.29428 2.5254 0.2908 1.0924 0.27547 1.1623-0.39617 1.806-0.38428 0.36824-0.69868 0.80958-0.69868 0.98076 0 0.17117 0.56061 0.86307 1.2458 1.5376 1.3445 1.3235 1.3621 1.4509 0.49322 3.5676-0.33999 0.82825 1.0599 0.81137-14.328 0.17274z" fill="#ffc500"/>
    <path id="path5176" d="m268.69 145.28c-6.667-0.31922-12.933-0.58848-13.925-0.59837l-1.8035-0.018-0.41027-1.0254c-0.22565-0.56395-0.32322-1.1757-0.21682-1.3594 0.10639-0.1837 0.89753-0.92021 1.7581-1.6367 0.86056-0.71647 1.64-1.54 1.732-1.83 0.15967-0.50308 0.28509-0.5202 2.7285-0.3725 1.4086 0.0852 6.1977 0.276 10.642 0.4241 9.6093 0.3202 9.6241 0.32186 9.8188 1.0976 0.0812 0.32336 0.88688 1.2011 1.7905 1.9506 1.0944 0.90766 1.6439 1.5459 1.6459 1.9115 0.003 0.53346-1.1364 2.136-1.4716 2.0698-0.0918-0.0181-5.6218-0.29415-12.289-0.61337z" fill="#ffc500"/>
    <path id="path5178" d="m284.98 177.91c0-0.36457-0.32186-0.42353-2.336-0.42794-1.2848-0.003-8.7568-0.17097-16.604-0.37369-7.8476-0.20272-15.49-0.37089-16.984-0.3737l-2.7153-0.005-1.1163-1.5164-1.1163-1.5164 1.9376-1.9265 1.9376-1.9265 16.289 0.79887c8.9588 0.43938 17.056 0.86695 17.993 0.95014l1.7046 0.15128v-0.91651c0-0.56583-0.12079-0.91582-0.31568-0.91468-0.17362 0.001-8.2706-0.40035-17.993-0.89189-13.385-0.6767-17.878-0.98318-18.502-1.2621l-0.82419-0.36836 1.0028-0.90596c1.4297-1.2916 2.5396-3.0647 2.5396-4.0569 0-0.61061-0.30377-1.2037-1.1463-2.2381l-1.1463-1.4074 1.3326-1.5322c2.3148-2.6614 1.0823-2.513 16.368-1.97 7.29 0.25899 13.624 0.47493 14.075 0.47985 0.77134 0.008 0.82074-0.0443 0.82074-0.87494 0-0.79744-0.0679-0.88325-0.69448-0.87741-0.38196 0.004-6.547-0.18624-13.7-0.42178-12.44-0.40965-13.035-0.4511-13.684-0.9535-0.37329-0.28887-0.96991-0.72941-1.3258-0.97896-0.35591-0.24955-0.64711-0.60527-0.64711-0.79049 0-0.18521 0.76201-1.2595 1.6934-2.3873l1.6934-2.0506 1.9053 0.005c1.0479 0.002 6.6783 0.22842 12.512 0.50204 5.8336 0.27362 11.063 0.49887 11.62 0.50054 0.92622 0.003 1.111 0.12489 2.1466 1.4184 1.6833 2.1026 2.2695 2.9547 2.2695 3.2987 0 0.16988-0.71027 0.68447-1.5784 1.1436-1.2835 0.67877-1.5933 0.96478-1.6585 1.5312-0.0655 0.56968 0.0724 0.77658 0.75761 1.1364 0.46074 0.24196 1.6786 1.2839 2.7064 2.3153l1.8687 1.8754-1.3636 1.2102c-1.1407 1.0124-1.5298 1.2115-2.3804 1.2182-1.3333 0.0105-26.259-0.93659-29.603-1.1249l-2.5885-0.14572v0.89185c0 0.75585 0.0866 0.8922 0.56821 0.89414 3.9549 0.0159 32.155 1.3196 32.212 1.4892 0.21709 0.65125 1.7075 2.6189 2.5826 3.4095l0.99576 0.89961-0.69088 0.1641c-0.88469 0.21013-1.5748 0.81061-1.5748 1.3703 0 0.65424 2.0468 3.307 3.1088 4.0292 0.5106 0.34724 0.92915 0.69351 0.9301 0.76949 0.002 0.13296-1.1336 1.23-2.5868 2.4998-0.57619 0.50346-0.69448 0.5348-0.69448 0.18399z" fill="#ffc500"/>
    <path id="path5180" d="m275 185.54c-8.7238-0.25947-32.294-1.2456-32.405-1.3556-0.16667-0.16666 0.68023-1.5463 1.3768-2.2429 0.39197-0.39197 1.056-0.88588 1.4755-1.0976 1.1411-0.57574 1.8993-1.3582 1.8993-1.9602 0-0.49686 0.11568-0.53098 1.5784-0.46553 0.8681 0.0388 7.1468 0.18691 13.953 0.32905 6.8059 0.14213 14.373 0.32955 16.816 0.4165 4.4366 0.15791 4.4411 0.15865 4.3323 0.7279-0.17092 0.89412 0.35306 1.5808 1.8515 2.4265 1.2755 0.71985 2.8858 2.5239 2.8858 3.233 0 0.3069-3.1544 0.30433-13.763-0.0112z" fill="#ffc500"/>
    <path id="path5182" d="m263.08 189.12c-9.0567-0.22787-16.542-0.48957-16.634-0.58154-0.092-0.092-0.22698-0.6974-0.30002-1.3454l-0.1328-1.1782 1.7408 0.14926c0.95742 0.0821 3.7295 0.21311 6.1602 0.29117 2.4307 0.0781 6.124 0.25175 8.2075 0.38599 2.0834 0.13424 7.9302 0.36101 12.993 0.50395 5.0627 0.14294 9.2527 0.30769 9.3111 0.36613 0.0584 0.0584 0.0306 0.50929-0.0618 1.0019l-0.16803 0.89566-2.3245-0.0373c-1.2785-0.0205-9.7346-0.22377-18.791-0.45164z" fill="#ffc500"/>
    <path id="path5184" d="m261.75 191.5c-11.042-0.1654-20.115-0.31671-20.161-0.33623-0.0463-0.0195-0.0371-0.17673 0.0204-0.34936 0.0723-0.21676 0.80149-0.32005 2.357-0.33386 2.8707-0.0255 31.907 0.57736 37.671 0.78212 4.2885 0.15233 4.3563 0.14659 4.3563-0.36863 0-0.67735 0.90231-0.7105 1.0778-0.0396 0.22194 0.84873-0.30727 1.0335-2.8329 0.98887-1.3264-0.0234-11.446-0.17792-22.489-0.34332z" fill="#ffc500"/>
    <path id="path5186" d="m193.05 301.61c0-0.0734 0.32785-0.78367 0.72856-1.5784 1.5677-3.1091 4.1276-9.0681 5.0718-11.807 1.1137-3.2297 2.3708-7.9598 4.2936-16.155 2.72-11.593 5.4879-17.892 10.211-23.239 1.9953-2.2586 5.7961-5.6103 8.0359-7.0862 1.9018-1.2533 6.859-3.7186 8.107-4.0318 0.88484-0.22208 1.1798-0.94937 1.1798-2.909 0-1.497-0.00092-1.4988-0.75761-1.4988-0.63977 0-0.75762-0.0982-0.75762-0.63134v-0.63135h4.0676c4.6004 0 4.3701 0.17019 2.8934-2.1383l-0.88401-1.3819 1.66-0.51274c2.0347-0.62845 2.0228-0.62839 2.1844-0.0105 0.1067 0.40801-0.0536 0.55766-0.85443 0.79759-0.54217 0.16244-0.98577 0.40749-0.98577 0.54456 0 0.6129 1.4186 2.448 1.894 2.45 0.27779 0.001 11.699 0.39836 25.38 0.88263 13.681 0.48426 25.5 0.88126 26.264 0.88222l1.389 0.002-0.12627-1.5784-0.12627-1.5784-1.9885-0.0743c-1.7077-0.0638-1.9674-0.0192-1.8388 0.31568 0.10693 0.27864-0.0103 0.39161-0.41063 0.39567-1.3239 0.0134-45.613-2.0556-46.585-2.1762-0.93287-0.1158-1.0733-0.2138-1.0733-0.7491 0-0.38115 0.14547-0.61587 0.38169-0.61587 0.20992 0 1.6463-0.50832 3.1919-1.1296s2.8924-1.0788 2.9929-1.0167c0.10049 0.0621 0.24945-0.53379 0.33103-1.3242 0.0816-0.79042 0.12558-1.4494 0.0978-1.4644-0.0278-0.015-1.5118-0.84272-3.2978-1.8393-2.5114-1.4014-3.4754-1.8121-4.2537-1.8121h-1.0064l0.16823-1.3258c0.24563-1.9358 0.36196-2.2097 0.93846-2.2097 0.47205 0 0.50896 0.11686 0.39886 1.2627l-0.12132 1.2627 3.309 0.003c1.82 0.002 11.615 0.17068 21.766 0.37525 10.152 0.20457 19.726 0.36624 21.276 0.35926l2.819-0.0127v-0.84699c0-0.46585 0.0598-1.0028 0.13286-1.1932 0.11113-0.28962-4.389-0.45059-27.522-0.98447-15.21-0.35103-27.723-0.70623-27.806-0.78934-0.0831-0.0831-0.0706-1.9506 0.0279-4.1501l0.17898-3.999 4.9941 0.0856 4.9941 0.0856 0.14248-2.1059c0.0784-1.1583 0.19299-2.9694 0.25471-4.0248l0.11223-1.9189-3.5763-0.16361c-1.967-0.09-4.7411-0.16403-6.1648-0.16453-1.4237-0.00051-2.5885-0.0723-2.5885-0.15962 0-0.33819 4.4596-6.2461 5.1631-6.8399 0.57342-0.484 0.93258-0.59701 1.569-0.49373 0.75921 0.1232 0.8724 0.0493 1.4115-0.92195l0.58613-1.0559 1.9486 0.0898c2.194 0.10106 2.101 0.20892 1.788-2.0748l-0.1606-1.1717-1.039-0.003c-0.57144-0.002-1.4679-0.0737-1.9922-0.16032-1.0865-0.17956-1.0865-0.24485 0.0005-2.5705 0.73326-1.5689 1.9457-2.8624 3.3586-3.5833 0.55189-0.28155 1.0034-0.64382 1.0034-0.80503s-0.61007-1.0964-1.3557-2.0783c-0.74564-0.98185-1.494-2.0515-1.663-2.3769-0.32186-0.6198-0.16995-1.8074 0.23115-1.8074 0.38962 0 3.2926-2.8072 3.2926-3.1839 0-0.19339-0.098-0.35161-0.21781-0.35161-0.42527 0-2.1813-1.5666-2.1813-1.946 0-0.22574 0.46553-0.55753 1.123-0.80042 1.2467-0.46053 3.2964-2.695 3.2964-3.5936 0-0.28195-0.51139-1.1404-1.1364-1.9077-0.62503-0.7673-1.1364-1.609-1.1364-1.8705 0-0.63292 2.7606-3.816 3.9436-4.5471l0.93835-0.57994-0.60956-0.39547c-2.4167-1.5679-2.3282-2.645 0.48657-5.9265l1.2784-1.4904-0.61957-1.0572c-0.39402-0.67235-0.61956-1.4469-0.61956-2.1277 0-1.1391 0.29725-1.5442 2.3645-3.2224l0.97556-0.79194-0.52661-1.6023c-1.0824-3.2933-0.98924-4.2451 0.54328-5.5495 0.73291-0.62381 0.75442-0.69024 0.35333-1.0913-0.55082-0.55082-0.53786-0.98276 0.0781-2.6034 0.27772-0.7307 0.50495-1.8218 0.50495-2.4246 0-0.60282 0.12309-1.4491 0.27352-1.8807 0.24005-0.68861 0.19369-0.88931-0.3788-1.6399-0.42068-0.55153-0.65234-1.1763-0.65234-1.7593 0-0.80038 0.20051-1.0823 1.748-2.4576l1.748-1.5535-0.73762-1.5592c-0.40569-0.85755-0.73771-1.863-0.73782-2.2343-0.00025-0.83255 0.99474-2.0569 2.015-2.4795 0.92989-0.38517 0.94-0.50608 0.10739-1.2839-0.64318-0.60087-1.365-1.7621-1.365-2.1961 0-0.12097 0.68186-1.2833 1.5152-2.583 0.83338-1.2997 1.5152-2.5179 1.5152-2.707 0-0.18914-0.24179-0.67094-0.53732-1.0707-1.3079-1.769-0.75346-7.8872 1.208-13.332 0.57696-1.6015 0.73788-1.8309 1.2842-1.8309 0.39563 0 0.58031 0.1157 0.50387 0.31567-1.7554 4.592-2.5622 8.57-2.4071 11.868 0.13922 2.9609 0.30616 3.1107 4.1928 3.7623 3.7215 0.62391 9.4006 0.88713 10.782 0.4997 0.57129-0.16027 1.5187-0.76243 2.1807-1.386 1.121-1.0559 1.1782-1.1787 1.3511-2.9005 0.27416-2.73-0.12989-5.8297-1.2842-9.8519-0.33332-1.1614-0.60603-2.1633-0.60603-2.2265 0-0.06314 0.29746-0.07883 0.66102-0.03488 0.59332 0.07172 0.72 0.2868 1.237 2.1002 1.0065 3.5302 1.229 4.9757 1.244 8.0812 0.0164 3.3901-0.35371 5.1283-1.2785 6.0047-0.82704 0.78381-0.75105 1.3871 0.39881 3.1662 1.7545 2.7146 1.848 2.9672 1.4111 3.8121-0.20901 0.40419-0.79382 1.076-1.2996 1.4929l-0.91956 0.75797 1.0189 0.64319c1.1525 0.72754 1.8199 1.5593 1.8199 2.268 0 0.4204-0.93774 2.2128-1.8287 3.4954-0.25327 0.36459-0.0482 0.65499 1.3983 1.9805 0.93231 0.85429 1.7611 1.8163 1.8418 2.1378 0.1844 0.73471-0.23871 1.5858-1.1931 2.3999-0.6899 0.58848-0.7208 0.68931-0.44971 1.467 0.16011 0.45929 0.22121 1.2722 0.13578 1.8064-0.10467 0.65456 0.0178 1.5319 0.37552 2.69l0.53084 1.7187-0.62149 0.53459-0.62149 0.53458 0.97369 1.0438c0.53553 0.57412 0.9737 1.2577 0.9737 1.5192 0 0.67889-0.92231 3.268-1.5327 4.3024l-0.51797 0.8779 1.6278 1.4691c0.89529 0.80802 1.7009 1.7605 1.7903 2.1165 0.18239 0.7267-0.52337 2.5617-1.2001 3.1204-0.64095 0.52912-0.52558 0.87167 0.84675 2.514 2.2187 2.6552 2.4304 4.1034 0.73708 5.0416-0.42835 0.23733-0.96917 0.5807-1.2018 0.76304-0.36515 0.28617-0.3712 0.35043-0.0442 0.46957 0.52817 0.19244 3.7586 3.5846 4.1572 4.3653 0.46366 0.90822 0.12799 1.5833-1.348 2.711-0.6921 0.52879-1.3236 1.1139-1.4034 1.3002-0.40466 0.94539 1.9984 3.9008 3.4268 4.2145 0.46323 0.10174 0.97468 0.3661 1.1365 0.58747 0.24409 0.3338 0.14529 0.50373-0.57905 0.99593-0.48035 0.3264-1.2709 0.75955-1.7567 0.96255l-0.88335 0.36909 0.78154 0.98678c0.42984 0.54273 1.3452 1.4006 2.0342 1.9063 1.7919 1.3154 1.7146 1.68-0.89375 4.2178-1.1805 1.1486-2.1465 2.2281-2.1466 2.3989-0.00007 0.1708 0.42603 0.5305 0.94689 0.79935 1.1018 0.56872 2.6207 2.0965 3.1646 3.1833 0.20856 0.41668 0.55385 1.3474 0.76732 2.0682l0.38812 1.3106-2.6335-0.14913-2.6335-0.14914v1.6387l1.2472-0.17154 1.2472-0.17153 0.13678 0.84232c0.0752 0.46327 0.16744 1.1249 0.2049 1.4703 0.0545 0.50212 0.24521 0.65753 0.95199 0.7756 2.3474 0.39214 3.8454 2.0755 5.943 6.6785l0.8985 1.9716-4.6834-0.14757-4.6835-0.14758v7.7224l1.3258 0.15925c0.7292 0.0876 2.4444 0.16024 3.8116 0.16145l2.4858 0.002-0.15763 2.4622c-0.0867 1.3542-0.22248 3.2293-0.30174 4.1669l-0.1441 1.7046h-3.7368l-0.003 0.82075c-0.002 0.45141-0.0732 1.2469-0.15931 1.7678l-0.15653 0.94702h-2.9178l-2.08 2.3991c-1.5373 1.7732-2.2365 2.3991-2.6798 2.3991-0.52765 0-0.57908 0.0835-0.4277 0.69448 0.36063 1.4556 0.55161 1.9602 0.57346 1.5152 0.0175-0.35503 0.25478-0.44194 1.207-0.44194 1.1036 0 1.2769 0.0946 2.5151 1.373l1.3298 1.373 2.7562-0.17491 2.7562-0.17492 0.26421 2.905c0.14532 1.5977 0.22015 2.949 0.16629 3.0029-0.0539 0.0539-12.006-0.31147-26.559-0.81186-17.573-0.60417-27.871-0.85792-30.658-0.75541l-4.1964 0.15436-0.14956 1.7839c-0.0822 0.98115-0.0966 1.8369-0.0318 1.9016 0.0647 0.0647 13.044 0.4857 28.842 0.93547 15.798 0.44976 30.287 0.86911 32.197 0.93188l3.4724 0.11412-0.003-1.4176c-0.005-2.0012-0.1968-2.5347-0.97374-2.7066-1.3824-0.30585-1.5482-0.39954-1.5482-0.87467 0-0.56831 0.41981-0.60933 2.2402-0.21893l1.2549 0.26913 0.17983 2.7745 0.17982 2.7745 1.4413 0.72758c3.3714 1.7019 6.1135 3.9029 9.1286 7.3272 5.8108 6.5996 8.1138 12.307 10.955 27.148 2.4383 12.738 3.3105 16.143 5.9622 23.275 0.67977 1.8283 1.2359 3.3909 1.2359 3.4724s-0.21495 0.14819-0.47766 0.14819c-0.55075 0-0.73817-0.4155-2.6769-5.9346-2.0726-5.9-2.7274-8.5823-5.056-20.708-2.8493-14.838-4.9542-20.116-10.651-26.707-3.0001-3.4713-6.0686-5.8382-9.6754-7.4632l-1.6415-0.73956-32.653-0.9181-32.653-0.91811-2.1975 0.90357c-4.9712 2.044-8.4212 4.3159-12.317 8.111-5.9849 5.8298-8.7502 11.305-11.598 22.964-4.0784 16.698-4.5024 18.126-7.1625 24.124-2.842 6.4079-3.3222 7.2862-3.9842 7.2862-0.32842 0-0.59712-0.0601-0.59712-0.13347zm92.934-72.118c0-0.15279-0.38638-0.66418-0.85863-1.1364-0.65847-0.65847-1.0706-0.85863-1.7678-0.85863-0.63977 0-0.90914 0.11223-0.90914 0.3788 0 0.20835-0.19888 0.3728-0.44194 0.36545-0.24307-0.007-8.3969-0.38568-18.12-0.84075l-17.678-0.82739-1.2055 0.49808c-0.66303 0.27395-1.1471 0.55651-1.0757 0.62791 0.11396 0.11396 36.822 1.9577 40.604 2.0394 0.90672 0.0196 1.4521-0.073 1.4521-0.24642zm-5.1648-3.4472c-0.0937-0.52086-0.32296-1.0654-0.50958-1.2101-0.31241-0.24225-31.876-1.8123-32.06-1.5948-0.042 0.0496-0.13807 0.57311-0.21341 1.1634l-0.13699 1.0733 1.1755 0.0195c0.64654 0.0107 7.6531 0.33693 15.57 0.72497 7.9171 0.38805 14.833 0.72022 15.37 0.73817l0.97512 0.0326-0.17026-0.94702zm3.1054-4.2892c0.8361-0.93537 1.4841-1.7368 1.4399-1.7809-0.12661-0.12661-37.601-0.83927-39.865-0.75813l-2.0321 0.0728 2.3887 1.3218 2.3887 1.3218 15.271 0.7275c8.3989 0.40012 16.085 0.74286 17.08 0.76165l1.8089 0.0342 1.5202-1.7007zm9.2298-7.7064c0.0746-0.7292 0.18126-2.1497 0.23699-3.1567l0.10133-1.8309-0.78703-0.003c-0.43287-0.002-12.435-0.28439-26.672-0.62839s-27.033-0.62678-28.437-0.6284l-2.5515-0.003-0.17542 2.9342c-0.0965 1.6138-0.11229 2.9973-0.0351 3.0745 0.0772 0.0772 12.668 0.44621 27.981 0.82011 15.312 0.3739 28.372 0.69501 29.022 0.71358l1.1814 0.0338 0.13566-1.3258zm-7.1704-10.165v-3.9143l-1.0733-0.009c-0.5903-0.005-9.5964-0.27899-20.014-0.60911-10.417-0.33011-19.012-0.52498-19.099-0.43304-0.15743 0.16626-0.56729 7.8352-0.42261 7.9074 0.13454 0.067 32.519 0.8916 36.631 0.93265l3.9775 0.0397v-3.9143zm8.3338-5.2048c0-0.57552-1.6587-3.3645-2.6424-4.443-0.69-0.75649-1.3254-1.1854-1.9664-1.3273-0.71853-0.15907-0.94702-0.12995-0.94702 0.1207 0 0.26444-0.96987 0.30858-4.8614 0.22124-2.6738-0.06-13.835-0.22484-24.803-0.36628-14.681-0.18933-19.989-0.33491-20.123-0.55184-0.33758-0.54622-1.2978 0.26553-2.9501 2.4938-0.87929 1.1859-1.548 2.2068-1.486 2.2688 0.12516 0.12515 51.138 1.7812 56.433 1.832 2.3028 0.0221 3.3461-0.0553 3.3461-0.24822zm-7.0052-6.8539c0.066-0.17361 0.0642-0.69183-0.004-1.1516-0.0891-0.60158-0.2271-0.79627-0.49235-0.69448-0.20272 0.0778-0.52975 0.14143-0.72673 0.14143-0.19699 0-0.35816 0.23412-0.35816 0.52027 0 0.51065-0.0782 0.51747-4.23 0.36896-3.7027-0.13244-32.749-0.75033-37.98-0.80794-1.7981-0.0198-1.9491 0.0199-2.2043 0.58007-0.1507 0.33074-0.24801 0.6146-0.21627 0.63082 0.0317 0.0162 9.3196 0.16822 20.64 0.33778s21.678 0.32675 23.017 0.34932c1.7474 0.0294 2.4691-0.0481 2.5551-0.27465zm-2.8438-3.1927v-1.2356l-4.3563-0.14958c-14.039-0.48208-25.729-0.95878-31.73-1.294l-2.6249-0.14661 0.14716 1.4259c0.0809 0.78423 0.21208 1.4908 0.29143 1.5701 0.118 0.11799 27.371 0.89878 35.937 1.0296l2.336 0.0357v-1.2355zm4.41-3.4996c-0.46842-1.1231-1.7122-2.4791-2.7685-3.0184-1.1307-0.57731-1.894-1.3612-1.894-1.9451 0-0.32006 0.82336-1.317 2.1466-2.5992 1.1806-1.144 2.1466-2.1837 2.1466-2.3105s-0.50111-0.64117-1.1136-1.143c-1.5561-1.2751-3.0052-3.3022-2.8071-3.9267 0.0888-0.27987 0.5617-0.62425 1.0917-0.79504 1.4045-0.45263 1.4218-0.49381 0.47621-1.1363-1.1104-0.75457-2.9531-3.4896-2.9425-4.3676 0.01-0.80546 0.26907-1.1478 1.8229-2.4065 0.65976-0.53444 1.1996-1.1065 1.1996-1.2712 0-0.44077-3.266-3.7236-4.2935-4.3156-1.4615-0.84208-1.3062-1.4321 0.61912-2.3518 2.1116-1.0087 2.1471-1.4204 0.31505-3.6555-0.73648-0.89849-1.5036-1.8628-1.7046-2.143-0.34853-0.48563-0.94262-0.53433-12.74-1.0444-6.8059-0.29426-12.999-0.53108-13.763-0.52625l-1.389 0.009-1.7046 2.078c-0.94738 1.1549-1.7046 2.3225-1.7046 2.6284 0 0.37917 0.43105 0.85617 1.3857 1.5334l1.3857 0.98305 9.5366 0.30946c5.2451 0.1702 11.383 0.3797 13.64 0.46555l4.1038 0.15607v1.2572l-3.0936-0.15735c-1.7015-0.0865-7.412-0.28361-12.69-0.43794-5.278-0.15432-10.132-0.36801-10.787-0.47486-1.0325-0.16843-1.3399-0.10668-2.3105 0.46417-1.2083 0.71063-3.6958 3.2959-3.6958 3.841 0 0.18361 0.45844 0.80096 1.0188 1.3719 1.4249 1.4519 1.5627 2.4822 0.5322 3.9799-0.42899 0.62352-1.3183 1.6075-1.9762 2.1866-2.0798 1.8307-1.8395 1.8711 16.588 2.7863 21.764 1.081 20.203 0.94889 20.203 1.7102 0 0.61733-0.0324 0.62816-1.4521 0.48485-0.79865-0.0806-8.8797-0.51612-17.958-0.96777l-16.506-0.82119-1.2982 1.4201c-0.71402 0.78106-1.6107 1.6127-1.9927 1.8481-0.38196 0.23538-0.69448 0.56401-0.69448 0.73031 0 0.16629 0.52255 1.0055 1.1612 1.865l1.1612 1.5626 2.9425 0.005c1.6184 0.003 9.3065 0.17066 17.085 0.37373 7.7782 0.20307 15.136 0.3715 16.352 0.3743l2.2097 0.005v1.332l-4.9876-0.16055c-2.7432-0.0883-10.386-0.2765-16.983-0.41822-6.5976-0.14173-12.819-0.28614-13.826-0.32094-1.7104-0.0591-1.8309-0.0284-1.8309 0.46584 0 0.58437-0.59934 1.1865-2.1893 2.1994-1.1947 0.76108-2.2391 2.0194-2.481 2.9892l-0.16391 0.65705 3.6166 0.16227c18.894 0.84776 32.055 1.3084 39.67 1.3886l3.7283 0.0392-0.395-0.94702zm-6.8316-39.731c1.1047-1.3129 0.90575-1.9781-1.1324-3.785-1.2527-1.1106-1.7512-1.7174-1.669-2.0316 0.15364-0.58748-0.44283-0.64483-10.182-0.9789-4.2363-0.14532-9.055-0.33634-10.708-0.4245-2.411-0.12858-2.9661-0.0962-2.8056 0.16346 0.13505 0.21851-0.43821 0.92004-1.7634 2.158-1.7938 1.6757-1.9482 1.8966-1.7861 2.5553 0.40283 1.6371 0.7361 1.8557 2.8638 1.8778 1.676 0.0175 25.415 1.1101 26.236 1.2075 0.16128 0.0191 0.58743-0.31482 0.94702-0.74216zm-1.1042-9.2277 0.55316-1.6622-1.1654-1.1832c-1.0375-1.0533-1.5588-2.3022-0.96109-2.3022 0.11235 0 0.40625-0.14769 0.65311-0.3282 0.42691-0.31216 0.42787-0.40036 0.0196-1.8048-0.24808-0.85338-0.37847-1.9271-0.30893-2.544 0.0687-0.6094-0.0274-1.4187-0.22386-1.886-0.4712-1.1207-0.46164-1.1519 0.54289-1.7727 0.4879-0.30154 1.0083-0.77483 1.1566-1.0518 0.32282-0.6032 0.0997-0.89017-2.3179-2.9811l-1.6632-1.4385 0.90562-1.1308c0.49808-0.62191 1.1272-1.5439 1.3982-2.0488 0.47448-0.88442 0.4759-0.9365 0.0388-1.4195-0.41861-0.46257-1.9072-1.2637-3.4086-1.8346-0.60397-0.22963-0.58422-0.25976 0.74964-1.1436 1.7836-1.1819 2.5064-1.8492 2.5064-2.3138 0-0.20719-0.50598-1.1885-1.1244-2.1807-0.61841-0.9922-1.2424-2.1143-1.3866-2.4936-0.2393-0.6294-0.312-0.66116-0.83278-0.36377-0.93252 0.53251-7.2713 0.38442-11.277-0.26345-3.9785-0.64345-3.5618-0.61181-3.5618-0.27053 0 0.15213-0.6433 1.2335-1.4296 2.403-1.3488 2.0062-1.4099 2.163-1.0823 2.7752 0.19098 0.35685 0.70446 0.96247 1.1411 1.3458 0.7843 0.68863 0.84803 0.69905 5.3123 0.86839 2.4852 0.0943 5.6834 0.24234 7.107 0.32903 2.5152 0.15316 2.5885 0.17469 2.5885 0.75975v0.60212l-2.5885-0.14798c-1.4237-0.0814-4.6341-0.24963-7.1342-0.37386l-4.5457-0.22587-1.389 0.6881c-1.1302 0.55991-1.4042 0.82033-1.471 1.398-0.10265 0.88837 1.1878 3.6495 1.4827 3.1724 0.16261-0.2631 1.8411-0.21162 8.8072 0.27009 8.0012 0.5533 8.6063 0.62809 8.6063 1.0638 0 0.25777-0.1497 0.52611-0.33268 0.59632-0.18297 0.0702-4.0184-0.14328-8.5232-0.47444l-8.1905-0.60212-1.5152 1.2634c-1.7642 1.471-2.6516 2.3791-2.6516 2.7135 0 0.13075 0.41887 0.70138 0.93084 1.2681 0.92325 1.0219 0.92754 1.0368 0.52641 1.8316-0.22244 0.44071-0.46817 1.5026-0.54607 2.3596-0.0779 0.85709-0.32901 2.0266-0.55802 2.599-0.22902 0.57236-0.3418 1.1152-0.25064 1.2064 0.0912 0.0912 5.1341 0.51261 11.206 0.93654 10.992 0.76739 11.041 0.7733 11.121 1.339 0.10197 0.71797 0.6992 0.72577-11.571-0.15101l-9.7222-0.69472-1.2532 1.2016-1.2532 1.2016 0.27959 1.5888c0.15377 0.87382 0.42523 1.9297 0.60324 2.3464 0.30986 0.72535 0.32796 0.73262 0.42486 0.17059 0.0999-0.5793 0.13338-0.58507 2.5434-0.43822 1.3432 0.0819 5.5674 0.2596 9.387 0.39499 3.8196 0.1354 8.1096 0.31512 9.5333 0.39938 2.4308 0.14388 2.589 0.18635 2.5969 0.69712l0.008 0.54391 0.47753-0.57254c0.26264-0.3149 0.72644-1.3206 1.0307-2.2348z" fill="#ffc500"/>
    <path id="path5188" d="m261.62 197.82c-14.168-0.45094-25.967-0.862-26.221-0.91347-0.38496-0.0782-0.20643-0.43482 1.0858-2.1691 1.6812-2.2562 1.9961-2.5532 2.2581-2.1293 0.22721 0.36763 50.074 1.0792 50.315 0.71829 0.29321-0.44011 1.5505 0.0917 2.394 1.0126 0.45533 0.4971 1.2374 1.6833 1.7381 2.6359l0.9102 1.7321-3.3599-0.0335c-1.8479-0.0185-14.952-0.4025-29.12-0.85345z" fill="#ffc500"/>
    <path id="path5190" d="m261.8 207.08-16.236-0.38187 0.17086-3.8079c0.094-2.0943 0.184-3.8253 0.20006-3.8465 0.0161-0.0213 8.6092 0.23079 19.096 0.56014 10.487 0.32934 19.436 0.60244 19.887 0.60688l0.82075 0.008v7.3236l-3.8512-0.0403c-2.1182-0.0222-11.158-0.21211-20.087-0.42214z" fill="#ffc500"/>
    <path id="path5192" d="m262.83 214.38c-15.169-0.36917-27.646-0.73669-27.726-0.81671-0.08-0.08-0.0674-1.3532 0.028-2.8292l0.17351-2.6837 2.425 0.002c1.3338 0.001 14.13 0.28421 28.436 0.62866s26.242 0.62749 26.525 0.62896c0.47586 0.002 0.50763 0.13635 0.43527 1.8336-0.0429 1.007-0.13885 2.3139-0.21314 2.9042l-0.13507 1.0733-1.1841-0.0351c-0.65124-0.0193-13.595-0.33717-28.765-0.70635z" fill="#ffc500"/>
    <path id="path5194" d="m263.39 218.01c-8.056-0.17448-16.582-0.32848-18.947-0.34223l-4.2998-0.025 0.0965-1.0117c0.0531-0.55645 0.19404-1.072 0.31328-1.1457 0.24727-0.15282 46.779 0.8639 47.649 1.0411 0.45489 0.0927 0.56821 0.28673 0.56821 0.97289v0.8571l-5.3664-0.0146c-2.9515-0.008-11.958-0.15736-20.014-0.33183z" fill="#ffc500"/>
    <path id="path5196" d="m263.61 222.41-15.184-0.72595-1.9116-1.065c-1.0514-0.58574-1.8683-1.1083-1.8154-1.1612 0.13912-0.13912 34.639 0.48132 37.574 0.67571l2.4682 0.16349-1.2055 1.4486-1.2055 1.4485-1.7678-0.0291c-0.97227-0.016-8.6006-0.35579-16.952-0.75506z" fill="#ffc500"/>
    <path id="path5198" d="m264.52 225.96c-7.9865-0.38983-14.924-0.71634-15.417-0.72557-0.87316-0.0163-0.89364-0.0396-0.79312-0.90067 0.0943-0.8078 0.17388-0.88388 0.92445-0.88388 1.7357 0 28.36 1.2599 29.613 1.4014 1.4321 0.16158 1.4337 0.1627 1.6785 1.1871 0.15628 0.65385 0.11769 0.69261-0.65957 0.66244-0.45406-0.0176-7.36-0.351-15.346-0.74083z" fill="#ffc500"/>
    <path id="path5200" d="m263.96 228.54c-10.382-0.49827-18.877-0.98299-18.877-1.0772 0-0.61749 2.3538-0.59413 18.94 0.18796 21.132 0.99643 18.958 0.94141 18.779 0.47531-0.28931-0.75392 1.135-0.41951 2.1221 0.49825l0.94331 0.87705-1.5152-0.0277c-0.83337-0.0153-10.01-0.4354-20.392-0.93368z" fill="#ffc500"/>
    <path id="path5202" d="m263.46 237.87c-17.182-0.50784-31.294-0.97684-31.359-1.0422-0.0654-0.0654-0.0562-0.81053 0.0205-1.6558l0.13937-1.537 4.6573-0.16206c2.5615-0.0891 5.985-0.10193 7.6077-0.0284 6.5193 0.29525 47.474 1.6537 48.534 1.6099 2.6925-0.11135 3.0305 0.14613 3.0305 2.3091 0 1.4731-0.0112 1.4966-0.69448 1.4636-0.38197-0.0185-14.753-0.44914-31.935-0.95697z" fill="#ffc500"/>
    <path id="path5204" d="m262.5 320.16c-38.544-0.66629-72.125-1.2192-74.625-1.2288l-4.5457-0.0173 0.0831-1.8946 0.0831-1.8946 1.4321-0.008c3.8853-0.0222 145.23 2.3159 147.46 2.4393l2.5885 0.14289v3.7394l-1.1996-0.0333c-0.65975-0.0183-32.735-0.57849-71.279-1.2448z" fill="#ffc500"/>
    <path id="path5206" d="m252.02 333.8c-35.418-0.3865-65.777-0.71175-67.463-0.72276l-3.066-0.02-0.11806-0.94702c-0.0649-0.52086-0.0912-0.98052-0.0584-1.0215 0.097-0.12104 154 1.7155 154.12 1.8392 0.0622 0.0622-0.0296 0.45765-0.20409 0.87879l-0.31717 0.76572-9.2501-0.0349c-5.0876-0.0192-38.229-0.35108-73.647-0.73759z" fill="#ffc500"/>
    <path id="path5208" d="m256.37 337.95-66.867-1.0947-1.423-1.019-1.423-1.019 1.872 0.006c11.435 0.039 141.73 1.5001 141.82 1.5903 0.0669 0.0669-0.29465 0.70092-0.80336 1.409l-0.92492 1.2874-2.6911-0.0329c-1.4801-0.0181-32.781-0.5255-69.558-1.1276z" fill="#ffc500"/>
    <path id="path5210" d="m258.46 344.65c-32.988-0.3866-62.677-0.71181-65.976-0.7227l-5.9978-0.0198v-1.5088l1.9181 0.16214c1.4594 0.12336 1.9676 0.0821 2.125-0.17264 0.17159-0.27763 10.308-0.21785 59.386 0.35023 73.091 0.84606 78.553 0.92055 78.802 1.0749 0.11029 0.0682 0.20052 0.45816 0.20052 0.86665v0.74271l-5.2402-0.0349c-2.8821-0.0192-32.23-0.35123-65.218-0.73782z" fill="#ffc500"/>
    <path id="path5212" d="m257.33 348.44c-36.113-0.38621-68.302-0.71134-71.531-0.72252l-5.8715-0.0203v-2.5578l2.7148 0.12776c1.4931 0.0703 34.819 0.53479 74.057 1.0323 39.238 0.49749 72.365 1.0056 73.615 1.1292 1.2501 0.12356 3.0968 0.23456 4.1038 0.24665l1.8309 0.022v1.5152l-6.6291-0.0351c-3.646-0.0193-36.176-0.35109-72.289-0.7373z" fill="#ffc500"/>
    <path id="path5258" d="m363.63 395.02c-0.10625-0.10626-4.4322-0.27494-9.6131-0.37486-12.566-0.24234-194.9-3.0034-198.33-3.0034h-2.6924v-4.2857h-1.3916c-1.1465 0-1.5873-0.2229-2.5027-1.2655-0.6111-0.69601-1.6055-2.2448-2.2097-3.4418-1.079-2.1374-1.0886-2.2026-0.53724-3.6453 1.4393-3.7662 8.2671-8.2448 13.661-8.9609l1.8417-0.24448 0.24816-2.4711 0.24816-2.4711h3.432l-0.40487-1.3192c-0.22267-0.72554-0.78665-1.73-1.2533-2.2321-1.1615-1.2498-2.2036-3.3722-2.2036-4.4879 0-0.50866 0.23568-1.3806 0.52374-1.9376 1.2125-2.3447 6.1596-5.5751 9.8334-6.4213 2.3945-0.55148 5.3572-0.49779 5.3572 0.0971 0 0.35059-0.77429 0.53775-2.7988 0.67651-3.6197 0.2481-7.4031 1.927-10.014 4.4438-2.0618 1.9873-2.2627 2.8694-1.1466 5.0342 1.2843 2.491 1.9502 2.9322 4.4257 2.9322 1.2231 0 42.558 0.56586 91.855 1.2575 88.351 1.2395 89.644 1.2477 90.53 0.57389 0.70307-0.53476 0.88185-0.96216 0.82115-1.9631-0.19891-3.2796-3.157-6.3737-8.7528-9.1553l-3.7815-1.8797-5.6583 0.0559c-3.1121 0.0307-36.274-0.26761-73.694-0.66295-37.42-0.39533-70.969-0.72044-74.554-0.72245l-6.5179-0.004v-5.3572h6.877l-0.23531-1.4716-0.23532-1.4716 2.6897 0.25204 2.6897 0.25204v-1.1019c0-0.74137 0.17528-1.1019 0.53571-1.1019 0.29464 0 0.53572 0.30375 0.53572 0.675 0 0.63263 0.45389 0.68843 7.2321 0.88899 3.9777 0.1177 31.098 0.45429 60.268 0.74797 29.17 0.29369 56.049 0.6173 59.732 0.71913l6.6964 0.18516v-0.86814c0-0.78547-0.17855-0.88592-1.875-1.0549-1.0312-0.1027-31.607-0.62162-67.946-1.1532l-66.071-0.9664-2.7564-1.9083c-2.4386-1.6883-2.9636-1.9083-4.5536-1.9083-1.6537 0-1.7972-0.0677-1.7972-0.84821 0-0.46652-0.10045-1.3504-0.22322-1.9643-0.22147-1.1074-0.24065-1.1161-2.4588-1.1161h-2.2356l-0.21284-1.875c-0.11705-1.0312-0.30555-3.4821-0.41888-5.4464-0.11332-1.9643-0.2802-3.933-0.37083-4.375-0.16297-0.79468-0.12128-0.80357 3.7706-0.80357 3.26 0 3.9354 0.0919 3.9354 0.53572 0 0.43651-0.59524 0.53571-3.2143 0.53571h-3.2143l0.0127 1.5179c0.0182 2.1633 0.60777 8.5074 0.80941 8.709 0.17642 0.17642 139.3 1.8964 154.4 1.9089l8.6182 0.007 0.2492-3.4822c0.13705-1.9152 0.32819-3.8194 0.42475-4.2316 0.15263-0.65162-0.0958-0.82536-1.9032-1.3309-1.1433-0.31984-2.4001-0.49681-2.793-0.3933-0.64515 0.17-116.94-1.6285-142.23-2.1997l-10.446-0.23589-0.0414-2.1882c-0.0228-1.2035-0.11493-1.907-0.20476-1.5632-0.19773 0.75664-0.0768 0.75401-1.7638 0.0382l-1.3829-0.58677 1.0714-0.33438c0.58928-0.18391 1.2942-0.40536 1.5665-0.49211 0.39964-0.12732 0.3764-0.28882-0.12059-0.83799-0.3386-0.37414-0.56026-0.96782-0.49257-1.3193 0.17683-0.91824 2.2865-2.2257 4.6528-2.8836 3.1816-0.88456 4.4644-2.4189 7.903-9.4532 1.6058-3.2848 3.1204-5.98 3.366-5.9892 0.71808-0.0269 0.55832 0.47115-1.629 5.0782-4.0673 8.5668-5.7993 10.53-10.301 11.679-0.81623 0.20818-1.8609 0.68599-2.3214 1.0618l-0.83738 0.68329 0.76713 0.72058c0.42193 0.39632 0.82371 0.86594 0.89286 1.0436 0.0723 0.18579 30.093 0.79906 70.661 1.4435 38.795 0.61627 72.839 1.2091 75.653 1.3174 5.0841 0.19567 5.116 0.19203 4.8785-0.5562-0.15707-0.49486-0.0143-1.0015 0.41623-1.4772 0.6403-0.70752 0.63198-0.74264-0.3638-1.5366-0.5605-0.44693-1.6227-0.99344-2.3604-1.2145-2.0617-0.6177-3.0099-1.5706-4.567-4.5895-1.2105-2.3469-5.4425-12.814-5.4425-13.461 0-0.11484 0.20089-0.20723 0.44643-0.20531 0.24595 0.002 1.2271 2.127 2.1848 4.7322 3.2392 8.8109 5.1082 12.037 7.2833 12.572 1.5821 0.38935 3.9099 1.8982 4.1102 2.6642 0.10194 0.38981-0.0336 0.99746-0.30124 1.3503-0.6997 0.92261-0.64044 1.0608 0.65142 1.5197l1.1607 0.41226-0.88837 0.4842c-0.48861 0.26631-1.0109 0.40846-1.1607 0.31589-0.14978-0.0926-0.27453 0.20278-0.27721 0.65633-0.003 0.45356-0.10836 1.2114-0.23483 1.6841-0.16356 0.61127-0.10815 0.78414 0.1919 0.5987 0.32209-0.19906 4.8042 0.97624 5.3237 1.396 0.12361 0.0999-0.61622 8.6535-0.84376 9.7553-0.15541 0.75248-0.30286 0.80377-1.7059 0.59337-1.1577-0.1736-1.5377-0.1126-1.5438 0.24775-0.004 0.26293-0.26407 1.0807-0.57702 1.8173-0.53889 1.2684-0.65511 1.3393-2.1963 1.3393-1.5935 0-1.662 0.0483-3.2973 2.3214-1.6121 2.241-1.7234 2.3214-3.2123 2.3214-1.274 0-1.5423 0.11738-1.5423 0.67454 0 0.49918 0.34818 0.73625 1.3393 0.9119 2.4333 0.43125 2.4868 0.47724 2.7355 2.352l0.23557 1.7758h7.1182v1.6282c0 0.95151 0.14277 1.54 0.34352 1.4159 0.40588-0.25085 7.8923 3.4131 9.5633 4.6804 2.674 2.028 4.561 4.8489 4.983 7.449 0.18084 1.1144 0.0513 1.4048-1.1181 2.5077-0.7417 0.69951-1.693 1.2474-2.166 1.2474-0.5297 0-0.92768 0.26566-1.0701 0.71429-0.12469 0.39285-0.46778 0.71428-0.76242 0.71428-0.3621 0-0.46654-0.21795-0.32226-0.67253 0.20534-0.64695-0.26582-0.68155-12.387-0.90962-24.252-0.45633-168.24-2.3581-168.38-2.2239-0.0745 0.0745 0.0257 0.5596 0.22277 1.0779 0.34945 0.91914 0.43561 0.94248 3.4921 0.94635 1.7236 0.002 43.312 0.48254 92.42 1.0675 49.107 0.58492 89.728 1.0653 90.268 1.0675 0.97117 0.004 0.98215 0.0301 0.98215 2.3457v2.3418l2.7287 1.2435c7.8763 3.5894 11.718 7.2064 13.011 12.25 0.43304 1.6896 0.41363 1.9012-0.25758 2.8073-1.432 1.9331-2.7611 2.5394-5.1017 2.3271l-2.1155-0.19183-0.24288 1.2946c-0.3479 1.8544-0.07 2.251 1.7715 2.5271 1.0711 0.16063 1.6356 0.42259 1.6356 0.7591 0 0.49096-1.0981 0.72526-1.5027 0.32064zm-3.3694-1.8604c0.0968-0.34375 0.2811-1.1473 0.40959-1.7857l0.23361-1.1607h-4.7142c-6.623 0-180.16-2.409-192.22-2.6684l-9.9107-0.21312v3.2386l6.1607 0.0251c5.8261 0.0237 196.87 3.0415 198.9 3.1419 0.63429 0.0313 1.0176-0.16391 1.134-0.57768zm7.0234-4.9726c1.0225-0.86035 1.1125-1.0927 0.91132-2.3509-0.74951-4.6872-4.2233-7.8886-13.241-12.203l-3.5714-1.7087-77.5-0.64816c-42.625-0.35649-84.692-0.72085-93.482-0.8097-13.486-0.1363-15.982-0.084-15.982 0.33505 0 0.33586-0.26009 0.43216-0.80357 0.29755-1.349-0.33411-6.3525 0.82656-9.0077 2.0895-2.8439 1.3527-6.2955 4.314-6.9941 6.0005-0.43264 1.0445-0.38004 1.3015 0.6878 3.3611 0.63594 1.2266 1.4629 2.5076 1.8377 2.8468 0.6341 0.57385 7.9761 0.72219 105.61 2.1337 57.708 0.83434 106.16 1.5381 107.66 1.564 2.485 0.0426 2.8462-0.042 3.875-0.90771zm-15.008-18.688v-1.4286l-1.6964-0.003c-0.93304-0.002-42.116-0.48238-91.518-1.0682-49.402-0.58583-91.127-1.0666-92.722-1.0683l-2.9008-0.003-0.23606 1.4762c-0.12983 0.81194-0.15833 1.554-0.0633 1.649 0.095 0.095 41.605 0.53311 92.244 0.97357s93.156 0.82341 94.482 0.85101l2.4107 0.0502v-1.4286zm-15.714-21.048v-1.0484l-3.8393-0.18826c-2.1116-0.10355-34.938-0.57719-72.946-1.0525-38.009-0.47534-71.649-0.98549-74.755-1.1337l-5.6479-0.2694 0.11221 1.5668 0.11221 1.5668 8.5714 0.10693c25.529 0.31849 129.01 1.4057 137.95 1.4493l10.446 0.051v-1.0484zm-7.3649-3.8623c-0.12959-0.54018-0.28194-1.0377-0.33856-1.1056-0.15565-0.18663 1.7085-0.1609-70.511-0.97319-45.071-0.50695-67.756-0.64181-67.911-0.40372-0.1372 0.21073-1.0536 0.27278-2.2321 0.15115l-1.9994-0.20635v2.0912l4.7321 0.0318c2.6027 0.0175 28.196 0.315 56.875 0.66115 28.679 0.34614 58.775 0.65326 66.882 0.68248l14.739 0.0532-0.23562-0.98214zm0.84314-6.7972 1.1568-1.6849-2.5854-0.0863c-5.0172-0.16737-142.52-1.5284-142.63-1.4118-0.065 0.065 0.64277 0.6637 1.5728 1.3304l1.691 1.2122 68.214 1.1243c37.518 0.61834 68.938 1.1415 69.821 1.1626 1.5296 0.0365 1.6629-0.0429 2.764-1.6466zm5.6159-4.0956 0.48824-1.1607-8.6305-0.1033c-96.212-1.1516-146.5-1.7328-146.57-1.6936-0.0431 0.0267 0.0181 0.64289 0.13601 1.3692l0.21429 1.3205 8.2568 0.0323c4.5413 0.0177 33.328 0.31516 63.971 0.66089 30.643 0.34572 61.548 0.65262 68.678 0.68199l12.964 0.0534 0.48824-1.1607zm-0.38427-14.068c0.13024-1.1081 0.15842-2.0931 0.0626-2.1889-0.16693-0.16692-136.21-2.5437-147.08-2.5695l-5.2679-0.0125v4.2857l3.4821 0.0267c1.9152 0.0147 33.616 0.55534 70.446 1.2015 36.83 0.64612 69.473 1.1966 72.54 1.2233l5.5758 0.0485 0.2368-2.0148z" fill="#ffc500"/>
    <path id="path5260" d="m258.7 365.55c-43.902-0.54672-82.438-1.0065-85.636-1.0218-4.8943-0.0233-5.8483-0.11497-6.0263-0.57884-0.11631-0.30312-0.13574-0.62686-0.0432-0.71944 0.16368-0.16368 145 1.725 168.04 2.1914 9.4608 0.19145 11.518 0.32138 11.518 0.72754 0 0.39484-0.80956 0.48447-4.0179 0.44482-2.2098-0.0273-39.938-0.49698-83.839-1.0437z" fill="#ffc500"/>
    <path id="path5262" d="m255.21 369.67c-50.342-0.43779-91.606-0.87159-91.699-0.964-0.0924-0.0924-0.0665-0.67583 0.0577-1.2965l0.22569-1.1285 3.0804 0.003c1.6942 0.002 43.42 0.48262 92.723 1.0686 49.304 0.58604 90.246 1.0668 90.982 1.0683 1.2494 0.003 1.3393 0.0747 1.3393 1.0742v1.0714l-2.5893-0.0504c-1.4241-0.0277-43.778-0.40857-94.12-0.84636z" fill="#ffc500"/>
    <path id="path5264" d="m279.78 387.52c-138.48-2.005-128.53-1.8086-129.36-2.5535-0.79461-0.7152-2.7732-3.9954-2.7785-4.6064-0.002-0.21186 0.49124-1.1319 1.0958-2.0446 1.2638-1.908 4.8801-4.4729 7.8416-5.5617 2.4733-0.90931 6.2304-1.58 7.1737-1.2806 0.44361 0.1408 0.88642 0.0273 1.144-0.29316 0.36881-0.45893 11.775-0.42609 93.277 0.26859l92.857 0.79146 4.8214 2.3249c2.6518 1.2787 5.75 3.0218 6.885 3.8736 2.2911 1.7195 4.2183 4.3493 4.9304 6.7279 0.46409 1.5503 0.45812 1.5731-0.67923 2.5893-1.0673 0.95365-1.3403 1.0219-3.9097 0.97772-1.5192-0.0261-39.003-0.57223-83.298-1.2135z" fill="#ffc500"/>
    <path id="path5266" d="m262.04 391.8c-52.643-0.84319-98.406-1.545-101.7-1.5596l-5.9821-0.0265v-2.5756l8.125 0.22179c4.4688 0.12199 50.795 0.80226 102.95 1.5117 52.152 0.70945 94.839 1.3097 94.86 1.3338 0.0212 0.0242-0.0365 0.64659-0.12836 1.3832-0.15469 1.2409-0.24938 1.3358-1.2886 1.2917-0.6169-0.0262-44.193-0.73747-96.836-1.5807z" fill="#ffc500"/>
    <path id="path5270" d="m254.72 415.84c-104.23-1.55-119.19-1.84-119.72-2.32-0.33702-0.29781-1.2063-1.6945-1.9318-3.1038-1.5167-2.9463-1.483-3.5933 0.30389-5.8402 3.1211-3.9246 9.2325-6.9948 14.864-7.4676 1.8164-0.15249 2.8675-0.41133 3.1331-0.77157 0.35695-0.48413 11.777-0.37741 106.79 0.99793l106.39 1.54 4.8214 2.4355c2.6518 1.3395 5.7857 3.2097 6.9643 4.156 2.5948 2.0834 4.8321 5.311 5.4986 7.9327l0.49301 1.939-1.2942 1.186c-1.2595 1.1542-1.3733 1.1848-4.2458 1.1398-1.6234-0.0254-56.55-0.84631-122.06-1.8242z" fill="#ffc500"/>
    <path id="path5272" d="m247.39 420.37c-54.607-0.64607-102.06-1.1868-105.45-1.2015l-6.1607-0.0268v-2.8086l7.7679 0.17507c4.2723 0.0963 57.66 0.89246 118.64 1.7693 60.979 0.87681 110.94 1.6589 111.01 1.738 0.0791 0.0791 0.038 0.47739-0.0914 0.88505-0.23284 0.73361-0.36947 0.74071-13.336 0.69271-7.2055-0.0267-57.78-0.57709-112.39-1.2232z" fill="#ffc500"/>
    <path id="path5274" d="m247.22 424.83c-50.58-0.34562-98.282-0.64297-106-0.66078l-14.038-0.0324 0.10982-1.5179 0.10982-1.5178 7.5-0.0793c9.7046-0.10265 245.1 2.5592 245.3 2.7738 0.0815 0.0895 0.25928 0.52434 0.39513 0.9663l0.24701 0.80357-20.828-0.0535c-11.455-0.0294-62.212-0.33628-112.79-0.68189z" fill="#ffc500"/>
    <path id="path5278" d="m261.32 451.44c-68.554-0.6457-129.83-1.1862-136.16-1.2011l-11.518-0.0271v-3.9286l4.5536 0.0153c17.496 0.0588 277.64 3.4867 277.81 3.6607 0.1206 0.1206 0.11234 0.78927-0.0184 1.4859l-0.23763 1.2666-4.8945-0.0489c-2.692-0.0269-60.984-0.57722-129.54-1.2229z" fill="#ffc500"/>
    <path id="path5280" d="m233.64 455.72c-66.884-0.45077-123.31-0.87027-125.39-0.93223l-3.7801-0.11264 0.53375-1.9161 0.53374-1.9161 2.8881 0.25193c1.5884 0.13856 2.969 0.37664 3.0678 0.52905 0.25512 0.39337 285.79 2.8977 286.26 2.5107 0.22051-0.183 1.0081-0.15491 1.883 0.0672 1.3304 0.3377 1.504 0.50036 1.504 1.4097v1.028l-22.946-0.0499c-12.621-0.0275-77.67-0.41873-144.55-0.86949z" fill="#ffc500"/>
    <path id="path5282" d="m197.69 477.01c-59.357-0.11314-108.04-0.31952-108.18-0.45862-0.24522-0.24522 1.8704-18.484 2.18-18.793 0.08475-0.0847 2.9296-0.23248 6.3219-0.32829 3.3923-0.0958 6.2547-0.3085 6.3609-0.47267 0.10622-0.16416 66.401 0.0994 147.32 0.58563l147.13 0.8841 7.4107 0.9617c6.0433 0.78425 7.4112 1.064 7.4134 1.516 0.001 0.30489 0.4011 3.9293 0.88807 8.0543 0.48696 4.125 0.88753 7.7009 0.89017 7.9464 0.005 0.48857-12.979 0.4948-217.74 0.10451z" fill="#ffc500"/>
    <path id="path5284" d="m384.71 428.43c-0.17671-0.0689-0.35258-0.14014-0.53013-0.20704-0.26621-0.0887-0.53366-0.1737-0.79999-0.26212-0.11114-0.0754-0.55227-0.11551-0.57685-0.28203 0.0697-0.032 0.13386-0.0807 0.20898-0.096 0.10177-0.0207 0.70528 0.18196 0.83183 0.22081 0.10923 0.0699 0.51891 0.096 0.54174 0.2632-0.11294 0.12746-0.32633 0.12002-0.25094-0.0553 0.0605-0.11059 0.15985-0.19509 0.25833-0.2713 0.16562-0.10536 0.34246-0.23847 0.53768-0.15017 0.13438 0.0879 0.18528 0.22054 0.18268 0.37552-0.0221 0.16759-0.13382 0.27622-0.26853 0.36472-0.24091 0.1649-0.46844 0.18261-0.73951 0.10128-0.15794-0.0573-0.27704-0.16187-0.37124-0.29729-0.0453-0.071-0.0844-0.0258-0.14442 0.004-0.1291 0.0691-0.24682 0.0605-0.37713 0.003-0.12533-0.0678-0.11307-0.16584-0.0322-0.2646 0.16496-0.13946 0.34497-0.22458 0.55738-0.20926 0.22407 0.038-0.13054 0.15081-0.2356 0.1356-0.39798-0.10679-0.0267-0.18245 0.20525-0.11295 0.25523 0.0889 0.1241 0.0429 0.39337 0.13806 0 0-0.14763 0.0998-0.14763 0.0998-0.26907-0.0949-0.13806-0.0492-0.39297-0.13726-0.18871-0.0557-0.16396 0.001-0.073-0.15426 0.0171-0.0293 0.059 0.0344 0.0912 0.0451 0.0227 0.008 0.0463 0.0123 0.0694 0.0184 0.0373 0.004 0.134-0.0294 0.11254 0.001-0.0795 0.11402-0.0835 0.0806-0.16762 0.0702-0.085-0.004-0.40586 0.0987-0.19129-0.003 0.0207-0.01-0.0378 0.0258-0.0567 0.0386-0.0807 0.0868-0.10629 0.17238 0.0163 0.23504 0.12857 0.0534 0.24373 0.0528 0.368-0.0157 0.0673-0.034 0.11129-0.0573 0.15886 0.0168 0.0921 0.13231 0.2097 0.23304 0.36468 0.28712 0.10081 0.0287 0.19464 0.0483 0.3004 0.0449 0.0346-0.001 0.0691-0.004 0.10331-0.009 0.0315-0.005 0.0737-0.0458 0.0932-0.0207 0.0177 0.0227-0.0473 0.0329-0.071 0.0493 0.13403-0.0827 0.24879-0.18567 0.27558-0.34881 0.006-0.14799-0.0412-0.27556-0.17192-0.35706-0.18671-0.0736-0.32282 0.0908-0.16088-0.051 0.0181-0.0159-0.0417 0.024-0.0626 0.0361-0.0988 0.0735-0.19793 0.15698-0.26147 0.26374-0.0925 0.15936 0.17439 0.0574-0.0707 0.21005-0.10745-0.14373-0.36338-0.17246-0.52997-0.2439-0.23346-0.0713-0.46851-0.13696-0.70658-0.19131-0.0404-0.009-0.11212 0.0159-0.12188-0.0244-0.0103-0.0423 0.0627-0.0604 0.094-0.0906 0.13604 0.13454 0.37706 0.19006 0.56526 0.26293 0.26663 0.0882 0.53432 0.1732 0.8005 0.26267 0.17751 0.0673 0.35368 0.13809 0.53042 0.20725l-0.1483 0.0994z" fill="#ffc500"/>
    <path id="path5286" d="m292.53 446.06-93.348-1.1779v-18.717l8.8839 0.11324c4.8862 0.0623 45.085 0.31756 89.33 0.56728 44.246 0.24971 81.589 0.49906 82.985 0.5541 1.5322 0.0604 2.5233 0.17022 2.5 0.27701-0.0758 0.34792 1.3408 0.93147 1.9127 0.78793 0.52781-0.13248 2.6397 0.71193 6.0413 2.4156 2.8307 1.4177 4.4522 2.4828 5.8863 3.8666 2.0861 2.0128 3.3372 4.3863 4.2389 8.0414l0.41053 1.6642-0.60341 0.6367c-0.34169 0.36056-1.3094 0.97478-2.2312 1.4162l-1.6278 0.7795-5.515-0.0236c-3.0333-0.013-47.522-0.55365-98.863-1.2015z" fill="#ffc500"/>
    <path id="path5288" d="m177.22 347.67c-0.007 0.13322-0.002 0.25699 0.0839 0.36396 0.0844 0.0824 0.18371 0.0874 0.2921 0.0593 0.12397-0.0288 0.21545-0.12563 0.3463-0.12342 0.12209 0.0554 0.1548 0.195 0.17061 0.31649 0.007 0.0488 0.006 0.0975 0.006 0.14654-0.006 0.17359 0.0105 0.3469 0.0348 0.51861 0.0823 0.15578-0.2185 0.10457-0.10187 0.0753 0.0565-0.0142 0.11433-0.0222 0.1715-0.0333 0.0492 0.15101-0.0627 0.37485-0.25501 0.24816l0.15002-0.0967c0.0807 0.0472 0.0662 0.0205-0.0652 0.12154-0.005 0.004 0.0461-0.19478 0.0131-0.18822 0.0471-0.0373 0.17671-0.16098 0.14008-0.11337-0.0679 0.0882-0.20831 0.2405-0.21046 0.0699-0.0247-0.17243-0.0417-0.34657-0.0361-0.52094 0.00035-0.0484 0.002-0.0963-0.005-0.14446-0.0133-0.11055-0.0392-0.25105-0.15678-0.29426-0.12695 0.008-0.22025 0.1029-0.3441 0.12634-0.11466 0.0235-0.21739 0.0114-0.30337-0.076-0.0871-0.11095-0.0978-0.23632-0.0898-0.3744l0.15906-0.081z" fill="#ffc500"/>
    <path id="path5290" d="m190.12 339.12c0.0797-0.12678 0.13986-0.26475 0.21063-0.39674 0.0685-0.1262 0.22728-0.29261 0.36782-0.17384 0.0373 0.0252 0.21364 0.0432-0.0686 0.0653-0.0342 0.003 0.0258-0.0636 0.0358-0.0963 0.002-0.11074 0.21392-0.24785 0.0972 0.0222-0.11143 0.21451-0.26453 0.20761-0.29115-0.0307-0.004-0.0937-0.0533-0.22192 0.15038-0.14254 0.0473 0.0184-0.00073 0.10151-0.00099 0.15226-0.002 0.0517-0.001 0.10619 0.004 0.15629l-0.15502 0.0886c-0.025-0.0478 0.002-0.11242-0.008-0.16393 0.00001-0.002 0.0007-0.15212 0.0009-0.1524 0.19891-0.27826 0.1547-0.14798 0.16688-0.021 0.004 0.0354 0.006 0.082 0.0177 0.11676 0.005 0.0142 0.0284 0.0273 0.0206 0.0401-0.17482 0.28376-0.11461 0.079-0.0674 0.031 0.0458-0.10514 0.29019-0.43456 0.22628-0.17313-0.0318 0.11446-0.15697 0.30188-0.27984 0.20218-0.0183-0.0147-0.0733-0.0199-0.0589-0.0385 0.19116-0.2471 0.0591 0.008 0.005 0.0446-0.0717 0.13219-0.13268 0.26999-0.20948 0.39914 0 0-0.16394 0.0707-0.16394 0.0707z" fill="#ffc500"/>
    <path id="path5292" d="m181.19 318.16c0.42125 0.0245 0.84305 0.0375 1.2641 0.0653 0.53722 0.037 1.0719 0.10329 1.6077 0.15651 0.0911 0.008 0.18223 0.0164 0.27334 0.0246l-0.14501 0.10338c-0.0911-0.008-0.1823-0.0165-0.27345-0.0247-0.53565-0.0533-1.0702-0.11953-1.6074-0.15601-0.42091-0.0273-0.84252-0.0414-1.2637-0.0641l0.1444-0.10491z" fill="#ffc500"/>
    <path id="path5294" d="m238.71 228.15c0.37633-0.0629 0.75699-0.0961 1.1378-0.11456 0.25593-0.01 0.51201-0.0132 0.76807-0.0173l-0.14394 0.10493c-0.25594 0.004-0.51192 0.008-0.76772 0.0178-0.38041 0.0193-0.76083 0.0523-1.1365 0.11686l0.14227-0.10772z" fill="#ffc500"/>
    <path id="path5296" d="m264.17 232.45c-13.013-0.47189-24.04-0.86348-24.505-0.87021-0.83623-0.0121-0.85034-0.0224-1.5556-1.1283l-0.71166-1.1161 1.0572-0.31676c0.7873-0.23588 1.0314-0.38405 0.95608-0.58035-0.0633-0.16503 0.006-0.2636 0.18581-0.2636 0.18704 0 0.28696 0.15544 0.28696 0.44642 0 0.38327 0.0821 0.44736 0.58036 0.45301 0.31919 0.004 11.268 0.51483 24.33 1.136 13.062 0.6212 23.777 1.1073 23.809 1.0801 0.0325-0.0271-0.0306-0.21691-0.14022-0.42175-0.19554-0.36537-0.16718-0.37244 1.4953-0.37244h1.6946l0.0888 0.58036c0.0488 0.3192 0.12296 0.96206 0.16473 1.4286l0.0759 0.84822-2.0763-0.0226c-1.142-0.0125-12.724-0.40873-25.737-0.88062z" fill="#ffc500"/>
    <path id="path5298" d="m255.6 330.22c-43.263-0.52045-78.788-0.95186-78.944-0.95869-0.24214-0.0106-0.328-0.65547-0.59011-4.4321-0.16871-2.4308-0.34892-4.6406-0.40046-4.9107l-0.0937-0.49107h6.457v-0.53572c0-0.29464 0.0804-0.53571 0.17857-0.53571 0.0982 0 0.17857 0.28377 0.17857 0.6306s0.10045 0.66553 0.22321 0.7082c0.12277 0.0427 34.609 0.64656 76.636 1.3419 56.173 0.92945 76.446 1.2114 76.537 1.0643 0.0866-0.14007 0.69371-0.0263 2.0246 0.37917 1.5705 0.47856 1.9009 0.63997 1.9009 0.92866 0 0.45155-0.50603 6.0536-0.6364 7.0454l-0.0998 0.75893-2.3551-0.0234c-1.2953-0.0129-37.752-0.44928-81.016-0.96973z" fill="#ffc500"/>
    <path id="path5300" d="m258.64 341.21c-68.73-0.82789-66.629-0.79761-67.009-0.96596-0.20898-0.0927-0.3125-0.33931-0.3125-0.7445 0-0.50521-0.0653-0.6059-0.39286-0.6059-0.24922 0-0.33058-0.0623-0.22253-0.17032 0.16861-0.16861 133.49 1.8606 133.96 2.039 0.12276 0.0464 0.22321 0.328 0.22321 0.62573v0.54132l-5.2232-0.0236c-2.8728-0.013-30.335-0.32607-61.027-0.69577z" fill="#ffc500"/>
    <path id="path5302" d="m252.75 362.54c-43.46-0.61918-80.739-1.1312-82.843-1.1379l-3.8252-0.0121-0.77209-0.80579c-0.42464-0.44319-1.1022-1.4624-1.5057-2.2649-0.6997-1.3916-0.72363-1.4927-0.51772-2.1853 0.32425-1.0906 2.8769-3.5259 4.8215-4.5999 2.644-1.4602 5.6435-2.2828 8.3346-2.2856 1.0697-0.001 1.295-0.053 1.3632-0.31385 0.0688-0.26326 0.085-0.25623 0.10261 0.0446 0.0204 0.34852 0.16639 0.35846 6.0475 0.41196 3.3146 0.0302 37.969 0.37381 77.009 0.76368 39.04 0.38986 72.469 0.69916 74.286 0.68732 1.817-0.0118 3.5045 0.0573 3.75 0.15357 0.24554 0.0963 1.5513 0.70689 2.9018 1.3569l2.4554 1.1818v10.177l-6.2946-0.0228c-3.462-0.0126-41.853-0.52941-85.312-1.1486z" fill="#ffc500"/>
    <path id="path5304" d="m344.5 363.76c-0.0596-0.0596-0.10842-2.3536-0.10842-5.0978 0-4.3058 0.0358-4.9756 0.26128-4.8891 0.1437 0.0552 0.81085 0.46233 1.4826 0.90485 2.3515 1.5492 3.967 3.4598 4.6796 5.5343 0.60293 1.7554 0.41277 2.6585-0.67534 3.2074-0.49557 0.25002-5.4321 0.54789-5.6397 0.3403z" fill="#ffc500"/>
    <path id="path5308" d="m365.94 393.23c-0.25328 0.48903-0.43712 1.0113-0.61741 1.5306-0.26046 0.75665-0.48917 1.5236-0.71088 2.2923l-0.16059 0.0762c0.22163-0.76896 0.45027-1.5362 0.71043-2.2931 0.18004-0.52028 0.3647-1.0426 0.61517-1.534l0.16328-0.072z" fill="#ffc500"/>
    <path id="path5310" d="m272.61 395.84c-44.54-0.66837-82.007-1.2206-83.259-1.2273l-2.2768-0.0121v-2.2762l2.3661 0.0697c1.3013 0.0383 40.536 0.63244 87.188 1.3202 72.619 1.0706 85.059 1.2913 86.473 1.5338 1.7866 0.3063 1.8632 0.38074 1.3393 1.3012l-0.3125 0.54906-5.2679-0.0216c-2.8973-0.0119-41.71-0.56842-86.25-1.2368z" fill="#ffc500"/>
    <path id="path5312" d="m156.44 444.31c-17.848-0.245-35.116-0.45568-38.373-0.46817l-5.9223-0.0227-1.4022-1.4521c-1.5107-1.5644-3.042-4.1692-3.042-5.1745 0-1.1865 1.9846-3.3883 4.672-5.1833 4.5644-3.0486 10.443-4.8939 15.784-4.9543 2.5668-0.029 2.6543-0.0486 2.7343-0.61259l0.0826-0.5826 31.99 0.14886c17.594 0.0819 32.927 0.21228 34.073 0.28978l2.0834 0.14092v18.39l-5.1139-0.0369c-2.8126-0.0203-19.717-0.23736-37.565-0.48236z" fill="#ffc500"/>
    <path id="path5314" d="m148.66 388.83c0.44192 0.11815 0.88274 0.24029 1.3277 0.34655 0.68689 0.17108 1.3817 0.30612 2.0785 0.42952 0.64262 0.11388 1.2882 0.20593 1.9386 0.25859l-0.20509 0.14646c-0.65088-0.0536-1.2968-0.14659-1.9399-0.26057-0.6971-0.12386-1.3922-0.25956-2.0794-0.43071-0.44519-0.10691-0.88648-0.22873-1.3287-0.34721l0.20826-0.14263z" fill="#ffc500"/>
    <path id="path5316" d="m170.58 394.31c-5.3475-0.0923-12.485-0.18396-15.861-0.20372l-6.1382-0.0359-0.51198-1.1574c-0.28158-0.63657-0.45445-1.2149-0.38415-1.2852s1.0458-0.19073 2.1677-0.26763c2.0372-0.13964 2.0399-0.14075 2.0399-0.85342 0-0.53056 0.0972-0.67632 0.37881-0.56824 0.22991 0.0882 0.3788 0.47013 0.3788 0.97163v0.82627l3.8512 0.15447c2.1182 0.085 9.8458 0.22742 17.173 0.31659l13.321 0.16213v2.206l-3.3461-0.0488c-1.8404-0.0269-7.7214-0.12433-13.069-0.21661z"/>
  </g>
  <g id="layer3" stroke="#000" fill="none">
    <path id="path4966" stroke-width="1.4565px" d="m272.83 32.756s-8.9532 48.552-11.085 53.312c-2.1317 4.76-2.9844 13.011-1.279 13.963s-2.1317 4.76-2.5581 6.0293c-0.42634 1.2693 2.5581 3.4907 2.5581 3.4907s-2.9844 0.95199-3.4108 2.2213c-0.42634 1.2693 1.7054 4.4427 1.7054 4.4427s-1.7054 1.2693-3.4108 2.856 1.7054 3.808 1.7054 3.808-1.279-0.63467-1.279 2.5386-2.1317 4.1253-0.42635 4.76c1.7054 0.63465-1.279 1.5867-1.7054 2.856-0.42635 1.2693 0.8527 5.0773 1.279 5.3946 0.42633 0.31733-1.279 1.2693-2.9844 2.856s0.85267 4.4426 0.85267 4.4426 1.279-1.2693-0.85267 1.2693-4.2634 4.1253-1.279 5.712 0 0.952-1.7054 3.1733-3.4108 2.5387-1.279 4.4426c2.1317 1.904 1.279 2.5386 1.279 2.5386s0.42635 0-1.7054 2.5387c-2.1317 2.5386-3.8371 0.63467-2.1317 2.2213 1.7054 1.5867 3.4108 0.31732 0.85268 3.1733-2.558 2.856-3.8371 1.5867-2.1317 4.1253 1.7054 2.5387 4.2634 3.808 1.279 5.0773s-3.8371 5.0773-3.8371 5.0773l23.023 0.95201"/>
    <path id="path4964" stroke-width="1.5556px" d="m271.55 33.189s4.6639 48.894 6.5502 53.778 1.9167 13.145-0.1354 13.968c-2.0521 0.82312 1.8862 4.884 2.2273 6.1761 0.34106 1.2921-3.3135 3.2844-3.3135 3.2844s3.2925 1.1612 3.6335 2.4534c0.34106 1.2922-2.4503 4.2919-2.4503 4.2919s1.7987 1.3844 3.5611 3.0841-2.378 3.6612-2.378 3.6612 1.53-0.53849 1.168 2.615c-0.36206 3.1535 1.9587 4.2533-0.0572 4.761-2.0159 0.50774 1.2766 1.669 1.6176 2.9611 0.34104 1.2922-1.551 4.9841-2.0731 5.2687-0.52205 0.28462 1.3128 1.3536 3.0753 3.0533 1.7624 1.6997-1.4786 4.3534-1.4786 4.3534s-1.3128-1.3536 0.8269 1.3229 4.388 4.407 0.8059 5.7685c-3.5821 1.3616-0.10856 0.94605 1.5814 3.2764s3.5973 2.7687 0.95073 4.5071-1.7472 2.4306-1.7472 2.4306-0.48586-0.0307 1.6538 2.6458 4.3004 0.90737 2.1759 2.3611c-2.1245 1.4538-3.9231 0.0695-1.3338 3.092 2.5894 3.0226 4.1918 1.8534 1.9587 4.2532-2.2332 2.3998-5.2932 3.4768-2.0369 4.9534s3.7935 5.3223 3.7935 5.3223l-26.346-0.71389"/>
    <path id="path4968" stroke-width="1.4565px" d="m245.12 185.71 0.42635 3.808 39.65 0.95199v-3.4906"/>
    <path id="path4970" stroke-width="1.4565px" d="m245.55 189.84-4.2635-0.31733-1.279 2.5386 48.177 0.63467-0.42635-3.4907-3.4107 0.63467"/>
    <path id="path4972" stroke-width="1.4565px" d="m239.58 192.37s-0.42635-2.856-3.4108 1.2693l-2.9844 4.1253 62.246 1.904s-2.5581-6.664-5.1161-7.2986c-2.5581-0.63467-2.9844 0-2.9844 0"/>
    <rect id="rect4974" transform="matrix(.99972 .023522 -.057015 .99837 0 0)" height="7.2808" width="59.471" y="201.71" x="246.14" stroke-width="1.2843"/>
    <path id="path4976" stroke-width="1.4565px" d="m245.12 198.4-0.42634 8.568"/>
    <path id="path4978" stroke-width="1.4565px" d="m286.48 199.67v8.2506"/>
    <path id="path4980" stroke-width="1.4565px" d="m239.58 215.22-0.42635 3.1733 50.309 0.95199 0.42634-3.808"/>
    <path id="path4982" stroke-width="1.4565px" d="m241.28 218.71 6.8215 3.808 34.534 1.5867 4.6898-5.3946"/>
    <path id="path4984" stroke-width="1.4565px" d="m280.93 224.11 0.8527 3.4906-34.534-1.5867 0.42635-3.4906"/>
    <path id="path4986" stroke-width="1.4565px" d="m246.83 225.69-5.5425 2.2213-1.279 0.31734 47.324 2.2213s-1.7054-3.4907-3.4108-3.4907h-1.7054"/>
    <path id="path4988" stroke-width="1.4565px" d="m239.15 227.92-2.9844 0.95201 2.1317 3.4906 54.572 1.904-0.42635-4.76-5.1161 0.31734"/>
    <path id="path4990" stroke-width="1.4565px" d="m228.92 232.68h9.3796-6.8215l-0.42635 5.0773 66.083 1.904-0.42635-5.0773-2.9844-0.63465"/>
    <path id="path4994" stroke-width="1.4565px" d="m231.05 237.75s-8.5269 2.5386-14.069 8.2506c-13.844 11.779-12.125 29.716-18.759 45.696-3.4108 7.616-7.2479 17.136-11.085 17.771-3.8371 0.63467-6.8215 2.5387-4.6898 3.808s-1.7054 1.904-1.7054 1.904l1.7054 0.63467"/>
    <path id="path4992" stroke-width="1.3102px" d="m296.41 239.66s6.9001 2.5386 11.385 8.2506c11.203 11.779 9.8119 29.716 15.18 45.696 2.76 7.616 5.8651 17.136 8.9701 17.771 3.105 0.63467 5.52 2.5387 3.795 3.808s1.38 1.904 1.38 1.904l-1.38 0.63467"/>
    <rect id="rect4996" stroke-linejoin="round" transform="matrix(.99986 .016622 -.029994 .99955 0 0)" height="4.7609" width="152.61" stroke-linecap="round" y="311.49" x="192.34" stroke-width=".72828"/>
    <path id="path4998" stroke-width="1.4565px" d="m182.02 318.67h-7.2478l0.85268 11.424 164.14 1.904 0.85269-9.52-5.1161-1.5867"/>
    <path id="path5000" stroke-width="1.4565px" d="m180.32 330.41 0.42635 3.4906 154.76 1.5867 1.279-3.1733"/>
    <path id="path5002" stroke-width="1.4565px" d="m184.15 334.22 5.1161 3.4906 139.84 2.2213 3.4108-4.76"/>
    <path id="path5004" stroke-width="1.4565px" d="m190.55 338.98v2.2213l135.15 1.5867v-2.5387"/>
    <path id="path5006" stroke-width="1.4565px" d="m190.55 341.84-5.1161-0.31734 0.42635 3.1733 144.1 1.5867-0.42634-3.1733-4.6898-0.95201"/>
    <path id="path5008" stroke-width="1.4565px" d="m185.43 344.38h-6.3952v4.1253l158.17 1.5867v-3.1733l-8.5269-0.31732"/>
    <path id="path5012" stroke-width="1.4565px" d="m177.76 348.5c-7.7928-0.9301-16.505 5.6408-15.348 8.8853 1.7054 4.1253 3.4108 4.76 3.4108 4.76l183.75 2.5387s2.5581-0.95201 2.5581-2.856c-1.2687-6.9259-7.283-9.0206-14.496-12.376"/>
    <path id="path5014" stroke-width="1.7191px" d="m164.74 370.48c-9.1323-1.1057-19.342 6.7061-17.986 10.563 1.9985 4.9044 3.997 5.6589 3.997 5.6589l215.34 3.0181s2.9978-1.1318 2.9978-3.3953c-1.4868-8.2338-8.5348-10.724-16.987-14.713"/>
    <path id="path5016" stroke-width="1.9947px" d="m151.17 396c-10.379-1.3098-21.983 7.9436-20.443 12.513 2.2714 5.8094 4.5428 6.7032 4.5428 6.7032l244.74 3.575s3.4071-1.3407 3.4071-4.0219c-1.6898-9.7533-9.7002-12.703-19.307-17.428"/>
    <path id="path5010" stroke-width="2.1607px" d="m130.73 425.9c-12.28-1.299-26.008 7.8783-24.186 12.41 2.6873 5.7616 5.3746 6.6481 5.3746 6.6481l284.87 3.5456s5.7364-1.647 5.7364-4.3062c-1.9992-9.6732-5.5075-12.281-16.873-16.968"/>
    <path id="path5020" stroke-width="1.4565px" d="m162.41 369.76 0.42635-4.4426 190.15 2.2213v3.808z"/>
    <path id="path5022" stroke-width="1.4565px" d="m165.4 362.15 1.279 3.808"/>
    <path id="path5024" stroke-width="1.4565px" d="m347.87 364.69-0.42635 2.2213"/>
    <path id="path5026" stroke-width="1.4565px" d="m153.46 387.22v3.808l207.2 3.1733 0.8527-4.76"/>
    <path id="path5028" stroke-width="1.4565px" d="m360.66 393.88 4.6898 0.95199"/>
    <path id="path5030" stroke-width="1.4565px" d="m151.75 390.39-5.5425 0.31733 1.7054 4.1253 217.44 3.1733"/>
    <path id="path5032" stroke-width="1.4565px" d="m135.12 414.51-0.42634 5.0773"/>
    <path id="path5034" stroke-width="1.4565px" d="m126.17 425.3 0.42635-5.3946 254.95 2.856"/>
    <path id="path5036" stroke-width="1.4565px" d="m374.3 419.27-0.42633 2.856"/>
    <path id="path5038" stroke-width="1.4565px" d="m381.13 423.07 0.8527 3.4906-254.95-1.5867"/>
    <path id="path5040" stroke-width="1.4565px" d="m112.96 445.29-0.42634 5.712 284.37 2.5387 0.42634-5.712"/>
    <path id="path5042" stroke-width="1.4565px" d="m112.96 450.37-8.1006-0.31734-1.7054 5.712 298.87 1.904v-3.808l-5.9688-1.5867"/>
    <path id="path5044" stroke-width="1.4565px" d="m104 456.39-13.217 0.31733s-2.5581 19.357-2.5581 20.944l328.29 0.63466-2.1317-18.723-13.217-1.904"/>
    <path id="path5046" stroke-width="1.4565px" d="m245.12 177.46 39.65 0.95199"/>
    <path id="path5048" stroke-width="1.4565px" d="m246.83 168.89 37.092 1.904"/>
    <path id="path5050" stroke-width="1.4565px" d="m250.24 162.23 32.829 1.2693"/>
    <path id="path5052" stroke-width="1.4565px" d="m252.37 153.98 27.712 0.95199"/>
    <path id="path5054" stroke-width="1.4565px" d="m252.8 145.41 28.565 1.2693"/>
    <path id="path5056" stroke-width="1.4565px" d="m255.35 137.48 24.302 0.95201"/>
    <path id="path5058" stroke-width="1.4565px" d="m255.35 130.18 22.596 1.5867"/>
    <path id="path5060" stroke-width="1.4565px" d="m257.91 121.61 19.612 1.5867"/>
    <path id="path5062" stroke-width="1.4565px" d="m259.19 115.58 17.48 1.2693"/>
    <path id="path5064" stroke-width="1.4565px" d="m260.9 109.55 14.069 0.63465"/>
    <path id="path5066" stroke-width="1.4565px" d="m260.47 100.67s13.643 2.856 16.201 0.63467l2.5581-2.2213"/>
  </g>
  <metadata>
    <rdf:RDF>
      <cc:Work>
        <dc:format>image/svg+xml</dc:format>
        <dc:type rdf:resource="http://purl.org/dc/dcmitype/StillImage"/>
        <cc:license rdf:resource="http://creativecommons.org/licenses/publicdomain/"/>
        <dc:publisher>
          <cc:Agent rdf:about="http://openclipart.org/">
            <dc:title>Openclipart</dc:title>
          </cc:Agent>
        </dc:publisher>
        <dc:title>stupa 2</dc:title>
        <dc:date>2011-05-15T17:06:59</dc:date>
        <dc:description>ak student, buddha, buddhist, clip art, clipart, dharma weel, india, pagoda, religion, stupa, thai, thailand, tower, vesak, weel, </dc:description>
        <dc:source>http://openclipart.org/detail/138877/stupa-2-by-chikiyo</dc:source>
        <dc:creator>
          <cc:Agent>
            <dc:title>chikiyo</dc:title>
          </cc:Agent>
        </dc:creator>
        <dc:subject>
          <rdf:Bag>
            <rdf:li>ak student</rdf:li>
            <rdf:li>buddha</rdf:li>
            <rdf:li>buddhist</rdf:li>
            <rdf:li>clip art</rdf:li>
            <rdf:li>clipart</rdf:li>
            <rdf:li>dharma weel</rdf:li>
            <rdf:li>india</rdf:li>
            <rdf:li>pagoda</rdf:li>
            <rdf:li>religion</rdf:li>
            <rdf:li>stupa</rdf:li>
            <rdf:li>thai</rdf:li>
            <rdf:li>thailand</rdf:li>
            <rdf:li>tower</rdf:li>
            <rdf:li>vesak</rdf:li>
            <rdf:li>weel</rdf:li>
          </rdf:Bag>
        </dc:subject>
      </cc:Work>
      <cc:License rdf:about="http://creativecommons.org/licenses/publicdomain/">
        <cc:permits rdf:resource="http://creativecommons.org/ns#Reproduction"/>
        <cc:permits rdf:resource="http://creativecommons.org/ns#Distribution"/>
        <cc:permits rdf:resource="http://creativecommons.org/ns#DerivativeWorks"/>
      </cc:License>
    </rdf:RDF>
  </metadata>
</svg>
